<?xml version="1.0" standalone="no"?>
<!DOCTYPE svg PUBLIC "-//W3C//DTD SVG 20010904//EN"
 "http://www.w3.org/TR/2001/REC-SVG-20010904/DTD/svg10.dtd">
<svg version="1.0" xmlns="http://www.w3.org/2000/svg"
 width="500.000000pt" height="500.000000pt" viewBox="0 0 500.000000 500.000000"
 preserveAspectRatio="xMidYMid meet">
<metadata>
Created by potrace 1.14, written by Peter Selinger 2001-2017
</metadata>
<g transform="translate(0.000000,500.000000) scale(0.100000,-0.100000)"
fill="#000000" stroke="none">
<path d="M1093 3971 c-79 -36 -73 87 -73 -1477 l0 -1396 39 -39 39 -39 231 0
231 0 0 671 c0 737 -3 705 60 743 25 14 109 16 880 16 771 0 855 -2 880 -16
63 -38 60 -6 60 -743 l0 -671 230 0 230 0 36 33 c22 20 38 47 44 72 6 23 10
520 10 1180 l0 1140 -273 272 -272 273 -1155 0 c-1113 0 -1157 -1 -1197 -19z"/>
<path d="M1873 2124 c-3 -9 0 -20 8 -25 18 -11 1220 -11 1238 0 8 5 11 16 8
25 -6 14 -67 16 -627 16 -560 0 -621 -2 -627 -16z"/>
<path d="M1873 1764 c-3 -9 0 -20 8 -25 18 -11 1220 -11 1238 0 8 5 11 16 8
25 -6 14 -67 16 -627 16 -560 0 -621 -2 -627 -16z"/>
<path d="M1873 1404 c-3 -9 0 -20 8 -25 18 -11 1220 -11 1238 0 8 5 11 16 8
25 -6 14 -67 16 -627 16 -560 0 -621 -2 -627 -16z"/>
</g>
</svg>
